# xmcd
#
# Track frame offsets:
#	150
#	19204
#	39076
#	59061
#	80416
#	97171
#	116944
#	131273
#	155942
#	174654
#
# Disc length: 2658 seconds
#
# Revision: 1
# Processed by: cddbd v1.5.2PL0 Copyright (c) Steve Scherf et al.
# Submitted via: audiograbber 1.83.01
#
DISCID=8a0a600a
DTITLE=Harry Ahamer - Steh Auf
DYEAR=2009
DGENRE=Austro
TTITLE0=Blau
TTITLE1=Jede Soi So Duan Wia A Wü
TTITLE2=Steh Auf
TTITLE3=Iagendwonn Iargendwie
TTITLE4=Xeng
TTITLE5=I Valieb Me Vü Zu Leicht
TTITLE6=Im Ö
TTITLE7=Koid
TTITLE8=Ka Zeid
TTITLE9=Ruaf Jetzt O
EXTD=
EXTT0=
EXTT1=
EXTT2=
EXTT3=
EXTT4=
EXTT5=
EXTT6=
EXTT7=
EXTT8=
EXTT9=
PLAYORDER=
